<mxfile host="app.diagrams.net" agent="Mozilla/5.0 (Windows NT 10.0; Win64; x64) AppleWebKit/537.36 (KHTML, like Gecko) Chrome/135.0.0.0 Safari/537.36" version="26.2.13">
  <diagram name="Страница — 1" id="JHaPDnSCQbVA_NrtYrfI">
    <mxGraphModel dx="985" dy="512" grid="1" gridSize="10" guides="1" tooltips="1" connect="1" arrows="1" fold="1" page="1" pageScale="1" pageWidth="827" pageHeight="1169" background="#ffffff" math="0" shadow="0">
      <root>
        <mxCell id="0" />
        <mxCell id="1" parent="0" />
        <mxCell id="DeDytAOxCO7QPPSxTEYB-1" value="«interface»&lt;div&gt;&lt;b&gt;IElevState&lt;/b&gt;&lt;/div&gt;" style="swimlane;fontStyle=0;childLayout=stackLayout;horizontal=1;startSize=30;fillColor=none;horizontalStack=0;resizeParent=1;resizeParentMax=0;resizeLast=0;collapsible=1;marginBottom=0;whiteSpace=wrap;html=1;" parent="1" vertex="1">
          <mxGeometry x="450" y="350" width="200" height="134" as="geometry" />
        </mxCell>
        <mxCell id="DeDytAOxCO7QPPSxTEYB-2" value="- CallFloor(Integer, Elevator)" style="text;strokeColor=none;fillColor=none;align=left;verticalAlign=top;spacingLeft=4;spacingRight=4;overflow=hidden;rotatable=0;points=[[0,0.5],[1,0.5]];portConstraint=eastwest;whiteSpace=wrap;html=1;" parent="DeDytAOxCO7QPPSxTEYB-1" vertex="1">
          <mxGeometry y="30" width="200" height="26" as="geometry" />
        </mxCell>
        <mxCell id="DeDytAOxCO7QPPSxTEYB-3" value="- Load(Integer, Elevator)" style="text;strokeColor=none;fillColor=none;align=left;verticalAlign=top;spacingLeft=4;spacingRight=4;overflow=hidden;rotatable=0;points=[[0,0.5],[1,0.5]];portConstraint=eastwest;whiteSpace=wrap;html=1;" parent="DeDytAOxCO7QPPSxTEYB-1" vertex="1">
          <mxGeometry y="56" width="200" height="26" as="geometry" />
        </mxCell>
        <mxCell id="DeDytAOxCO7QPPSxTEYB-4" value="- Unload(Integer, Elevator): Integer" style="text;strokeColor=none;fillColor=none;align=left;verticalAlign=top;spacingLeft=4;spacingRight=4;overflow=hidden;rotatable=0;points=[[0,0.5],[1,0.5]];portConstraint=eastwest;whiteSpace=wrap;html=1;" parent="DeDytAOxCO7QPPSxTEYB-1" vertex="1">
          <mxGeometry y="82" width="200" height="26" as="geometry" />
        </mxCell>
        <mxCell id="DeDytAOxCO7QPPSxTEYB-5" value="- RestorePower(Elevator)" style="text;strokeColor=none;fillColor=none;align=left;verticalAlign=top;spacingLeft=4;spacingRight=4;overflow=hidden;rotatable=0;points=[[0,0.5],[1,0.5]];portConstraint=eastwest;whiteSpace=wrap;html=1;" parent="DeDytAOxCO7QPPSxTEYB-1" vertex="1">
          <mxGeometry y="108" width="200" height="26" as="geometry" />
        </mxCell>
        <mxCell id="DeDytAOxCO7QPPSxTEYB-6" value="Elevator" style="swimlane;fontStyle=1;align=center;verticalAlign=top;childLayout=stackLayout;horizontal=1;startSize=26;horizontalStack=0;resizeParent=1;resizeParentMax=0;resizeLast=0;collapsible=1;marginBottom=0;whiteSpace=wrap;html=1;" parent="1" vertex="1">
          <mxGeometry x="200" y="325" width="160" height="200" as="geometry" />
        </mxCell>
        <mxCell id="DeDytAOxCO7QPPSxTEYB-7" value="- _state: IElevState&lt;div&gt;+ CurrentFloor: Integer&lt;/div&gt;&lt;div&gt;+ MaxWeight: Integer&lt;/div&gt;&lt;div&gt;+ CurrentWeight: Integer&lt;/div&gt;&lt;div&gt;+ OutageChance: Real&lt;/div&gt;" style="text;strokeColor=none;fillColor=none;align=left;verticalAlign=top;spacingLeft=4;spacingRight=4;overflow=hidden;rotatable=0;points=[[0,0.5],[1,0.5]];portConstraint=eastwest;whiteSpace=wrap;html=1;" parent="DeDytAOxCO7QPPSxTEYB-6" vertex="1">
          <mxGeometry y="26" width="160" height="84" as="geometry" />
        </mxCell>
        <mxCell id="DeDytAOxCO7QPPSxTEYB-8" value="" style="line;strokeWidth=1;fillColor=none;align=left;verticalAlign=middle;spacingTop=-1;spacingLeft=3;spacingRight=3;rotatable=0;labelPosition=right;points=[];portConstraint=eastwest;strokeColor=inherit;" parent="DeDytAOxCO7QPPSxTEYB-6" vertex="1">
          <mxGeometry y="110" width="160" height="8" as="geometry" />
        </mxCell>
        <mxCell id="DeDytAOxCO7QPPSxTEYB-9" value="+ ChangeState(IElevState)&lt;div&gt;+ CallFloor(Integer)&lt;/div&gt;&lt;div&gt;+ Load(Integer)&lt;/div&gt;&lt;div&gt;+ Unload(Integer): Integer&lt;/div&gt;&lt;div&gt;+ RestorePower()&lt;/div&gt;" style="text;strokeColor=none;fillColor=none;align=left;verticalAlign=top;spacingLeft=4;spacingRight=4;overflow=hidden;rotatable=0;points=[[0,0.5],[1,0.5]];portConstraint=eastwest;whiteSpace=wrap;html=1;" parent="DeDytAOxCO7QPPSxTEYB-6" vertex="1">
          <mxGeometry y="118" width="160" height="82" as="geometry" />
        </mxCell>
        <mxCell id="DeDytAOxCO7QPPSxTEYB-10" value="Form1" style="html=1;whiteSpace=wrap;" parent="1" vertex="1">
          <mxGeometry x="40" y="368" width="110" height="50" as="geometry" />
        </mxCell>
        <mxCell id="DeDytAOxCO7QPPSxTEYB-13" value="" style="endArrow=open;endFill=1;endSize=12;html=1;rounded=0;exitX=1;exitY=0.5;exitDx=0;exitDy=0;entryX=0;entryY=0.5;entryDx=0;entryDy=0;" parent="1" source="DeDytAOxCO7QPPSxTEYB-10" target="DeDytAOxCO7QPPSxTEYB-7" edge="1">
          <mxGeometry width="160" relative="1" as="geometry">
            <mxPoint x="320" y="450" as="sourcePoint" />
            <mxPoint x="480" y="450" as="targetPoint" />
          </mxGeometry>
        </mxCell>
        <mxCell id="DeDytAOxCO7QPPSxTEYB-14" value="" style="endArrow=none;endFill=0;endSize=24;html=1;rounded=0;entryX=1;entryY=0.5;entryDx=0;entryDy=0;exitX=0;exitY=0.5;exitDx=0;exitDy=0;startFill=0;startArrow=open;startSize=12;" parent="1" source="DeDytAOxCO7QPPSxTEYB-2" target="DeDytAOxCO7QPPSxTEYB-7" edge="1">
          <mxGeometry width="160" relative="1" as="geometry">
            <mxPoint x="320" y="450" as="sourcePoint" />
            <mxPoint x="480" y="450" as="targetPoint" />
          </mxGeometry>
        </mxCell>
        <mxCell id="DeDytAOxCO7QPPSxTEYB-16" value="" style="endArrow=block;endSize=16;endFill=0;html=1;rounded=0;entryX=0.5;entryY=1.007;entryDx=0;entryDy=0;entryPerimeter=0;dashed=1;" parent="1" target="DeDytAOxCO7QPPSxTEYB-5" edge="1">
          <mxGeometry width="160" relative="1" as="geometry">
            <mxPoint x="550" y="560" as="sourcePoint" />
            <mxPoint x="549.8000000000001" y="485.846" as="targetPoint" />
          </mxGeometry>
        </mxCell>
        <mxCell id="DeDytAOxCO7QPPSxTEYB-22" style="edgeStyle=orthogonalEdgeStyle;rounded=0;orthogonalLoop=1;jettySize=auto;html=1;exitX=0.5;exitY=0;exitDx=0;exitDy=0;endArrow=none;startFill=0;dashed=1;" parent="1" source="DeDytAOxCO7QPPSxTEYB-17" edge="1">
          <mxGeometry relative="1" as="geometry">
            <mxPoint x="560" y="560" as="targetPoint" />
            <Array as="points">
              <mxPoint x="460" y="560" />
            </Array>
          </mxGeometry>
        </mxCell>
        <mxCell id="DeDytAOxCO7QPPSxTEYB-17" value="&lt;b&gt;Waiting&lt;/b&gt;" style="html=1;whiteSpace=wrap;" parent="1" vertex="1">
          <mxGeometry x="420" y="600" width="80" height="40" as="geometry" />
        </mxCell>
        <mxCell id="DeDytAOxCO7QPPSxTEYB-23" style="edgeStyle=orthogonalEdgeStyle;rounded=0;orthogonalLoop=1;jettySize=auto;html=1;exitX=0.522;exitY=0.007;exitDx=0;exitDy=0;endArrow=none;startFill=0;exitPerimeter=0;dashed=1;" parent="1" source="DeDytAOxCO7QPPSxTEYB-19" edge="1">
          <mxGeometry relative="1" as="geometry">
            <mxPoint x="550" y="560" as="targetPoint" />
            <Array as="points">
              <mxPoint x="550" y="600" />
            </Array>
          </mxGeometry>
        </mxCell>
        <mxCell id="DeDytAOxCO7QPPSxTEYB-19" value="&lt;b&gt;Overloaded&lt;/b&gt;" style="html=1;whiteSpace=wrap;" parent="1" vertex="1">
          <mxGeometry x="510" y="600" width="80" height="40" as="geometry" />
        </mxCell>
        <mxCell id="DeDytAOxCO7QPPSxTEYB-24" style="edgeStyle=orthogonalEdgeStyle;rounded=0;orthogonalLoop=1;jettySize=auto;html=1;exitX=0.5;exitY=0;exitDx=0;exitDy=0;endArrow=none;startFill=0;dashed=1;" parent="1" source="DeDytAOxCO7QPPSxTEYB-20" edge="1">
          <mxGeometry relative="1" as="geometry">
            <mxPoint x="560" y="560" as="targetPoint" />
            <Array as="points">
              <mxPoint x="640" y="560" />
            </Array>
          </mxGeometry>
        </mxCell>
        <mxCell id="DeDytAOxCO7QPPSxTEYB-20" value="&lt;b&gt;Disabled&lt;/b&gt;" style="html=1;whiteSpace=wrap;" parent="1" vertex="1">
          <mxGeometry x="600" y="600" width="80" height="40" as="geometry" />
        </mxCell>
      </root>
    </mxGraphModel>
  </diagram>
</mxfile>
